<svg t="1692778978373" class="icon" viewBox="0 0 1024 1024" version="1.1" xmlns="http://www.w3.org/2000/svg" p-id="3170" width="128" height="128"><path d="M745.748 721.8h77.916v116.876h-77.916zM200.332 721.8h77.916v116.876H200.332z" fill="#8D386D" p-id="3171"></path><path d="M200.332 721.8h38.96v116.876h-38.96zM745.748 721.8h38.96v116.876h-38.96z" fill="#E8E6F4" p-id="3172"></path><path d="M278.248 850.672H200.332a12 12 0 0 1-12-12V721.8a12 12 0 0 1 12-12h77.916a12 12 0 0 1 12 12v116.876a12 12 0 0 1-12 11.996z m-65.916-24h53.916V733.8H212.332v92.872zM823.664 850.672h-77.916a12 12 0 0 1-12-12V721.8a12 12 0 0 1 12-12h77.916a12 12 0 0 1 12 12v116.876a12 12 0 0 1-12 11.996z m-65.916-24h53.916V733.8h-53.916v92.872z" fill="#44294F" p-id="3173"></path><path d="M512 215.34L200.332 371.172v350.628h623.332V371.172z" fill="#EB6B69" p-id="3174"></path><path d="M200.332 371.172v350.628h38.956V351.696z" fill="#E8E6F4" p-id="3175"></path><path d="M823.664 733.8H200.332a12 12 0 0 1-12-12V371.172a12 12 0 0 1 6.632-10.732l311.668-155.832a11.988 11.988 0 0 1 10.736 0l311.664 155.832a11.992 11.992 0 0 1 6.632 10.732v350.624a12 12 0 0 1-12 12.004z m-611.332-24h599.332V378.588L512 228.756 212.332 378.588v331.212z" fill="#44294F" p-id="3176"></path><path d="M278.248 449.088h116.876v116.876H278.248z" fill="#94D3CC" p-id="3177"></path><path d="M278.248 449.088h38.96v116.876h-38.96z" fill="#E8E6F4" p-id="3178"></path><path d="M628.872 449.088h116.876v116.876h-116.876z" fill="#94D3CC" p-id="3179"></path><path d="M628.872 449.088h38.96v116.876h-38.96z" fill="#E8E6F4" p-id="3180"></path><path d="M395.124 577.964H278.248a12 12 0 0 1-12-12v-116.876a12 12 0 0 1 12-12h116.876a12 12 0 0 1 12 12v116.876a12 12 0 0 1-12 12z m-104.876-24h92.876v-92.876H290.248v92.876zM745.748 577.964h-116.876a12 12 0 0 1-12-12v-116.876a12 12 0 0 1 12-12h116.876a12 12 0 0 1 12 12v116.876a12 12 0 0 1-12 12z m-104.872-24h92.876v-92.876h-92.876v92.876z" fill="#44294F" p-id="3181"></path><path d="M434.08 449.088h155.832v272.708H434.08z" fill="#FCC800" p-id="3182"></path><path d="M434.08 449.088h38.96v272.708h-38.96z" fill="#E8E6F4" p-id="3183"></path><path d="M589.916 733.8h-155.832a12 12 0 0 1-12-12v-272.708a12 12 0 0 1 12-12h155.832a12 12 0 0 1 12 12v272.708a12 12 0 0 1-12 12z m-143.832-24h131.832v-248.708h-131.832v248.708z" fill="#44294F" p-id="3184"></path><path d="M422.084 721.8h24v131.584h-24zM577.916 721.8h24v131.584h-24z" fill="#44294F" p-id="3185"></path><path d="M434.084 758.256h155.832v24h-155.832zM434.084 806.716h155.832v24h-155.832zM200.332 598.256h38.956v24h-38.956zM200.332 654.028h38.956v24h-38.956zM784.708 598.256h38.956v24h-38.956zM784.708 654.028h38.956v24h-38.956z" fill="#44294F" p-id="3186"></path><path d="M512 170.62L149 351.268v44.624L512 215.34l363 180.552v-44.72z" fill="#8479B9" p-id="3187"></path><path d="M187.956 331.88l-38.956 19.388v44.624l38.956-19.376z" fill="#E8E6F4" p-id="3188"></path><path d="M875 407.896c-1.828 0-3.656-0.416-5.344-1.256L512 228.744 154.34 406.64a12.008 12.008 0 0 1-17.344-10.744V351.268a12 12 0 0 1 6.656-10.744l363-180.648a12 12 0 0 1 10.688 0l363 180.552a11.992 11.992 0 0 1 6.656 10.744v44.724a11.996 11.996 0 0 1-11.996 12zM161 358.7v17.824l345.66-171.928a11.988 11.988 0 0 1 10.688 0l345.656 171.928v-17.916L512 184.02l-351 174.68z" fill="#44294F" p-id="3189"></path><path d="M278.248 359.172h467.5v24H278.248zM395.124 320.216h233.752v24H395.124z" fill="#44294F" p-id="3190"></path><path d="M473.04 488.048h78.668v78.668H473.04z" fill="#94D3CC" p-id="3191"></path><path d="M551.708 578.716H473.04a12 12 0 0 1-12-12v-78.668a12 12 0 0 1 12-12h78.668a12 12 0 0 1 12 12v78.668a12 12 0 0 1-12 12z m-66.668-24h54.668v-54.668H485.04v54.668zM539.708 643.88h24v77.916h-24zM539.708 597.38h24v30.668h-24z" fill="#44294F" p-id="3192"></path></svg>